<mxfile host="Electron" modified="2023-09-24T13:10:02.146Z" agent="Mozilla/5.0 (Macintosh; Intel Mac OS X 10_15_7) AppleWebKit/537.36 (KHTML, like Gecko) draw.io/21.6.8 Chrome/114.0.5735.289 Electron/25.5.0 Safari/537.36" etag="Rfdj-sXV-OxC7wkdHhkz" version="21.6.8" type="device">
  <diagram name="第 1 页" id="H-BNHK1wO-iDl2HKhUWB">
    <mxGraphModel dx="1026" dy="743" grid="1" gridSize="10" guides="1" tooltips="1" connect="1" arrows="1" fold="1" page="1" pageScale="1" pageWidth="827" pageHeight="1169" background="none" math="0" shadow="0">
      <root>
        <mxCell id="0" />
        <mxCell id="1" parent="0" />
        <mxCell id="Ky39L7HR0Ecmta5ytGhC-24" value="" style="rounded=0;whiteSpace=wrap;html=1;" vertex="1" parent="1">
          <mxGeometry x="140" y="60" width="240" height="320" as="geometry" />
        </mxCell>
        <mxCell id="Ky39L7HR0Ecmta5ytGhC-1" value="PercentileEstimator" style="rounded=0;whiteSpace=wrap;html=1;" vertex="1" parent="1">
          <mxGeometry x="160" y="80" width="200" height="40" as="geometry" />
        </mxCell>
        <mxCell id="Ky39L7HR0Ecmta5ytGhC-2" value="MarginEstimator" style="rounded=0;whiteSpace=wrap;html=1;" vertex="1" parent="1">
          <mxGeometry x="160" y="160" width="200" height="40" as="geometry" />
        </mxCell>
        <mxCell id="Ky39L7HR0Ecmta5ytGhC-3" value="ConfidenceMultiplier" style="rounded=0;whiteSpace=wrap;html=1;" vertex="1" parent="1">
          <mxGeometry x="160" y="240" width="200" height="40" as="geometry" />
        </mxCell>
        <mxCell id="Ky39L7HR0Ecmta5ytGhC-4" value="MinResourcesEstimator" style="rounded=0;whiteSpace=wrap;html=1;" vertex="1" parent="1">
          <mxGeometry x="160" y="320" width="200" height="40" as="geometry" />
        </mxCell>
        <mxCell id="Ky39L7HR0Ecmta5ytGhC-12" style="edgeStyle=orthogonalEdgeStyle;orthogonalLoop=1;jettySize=auto;html=1;exitX=1;exitY=0.5;exitDx=0;exitDy=0;entryX=1;entryY=1;entryDx=0;entryDy=0;curved=1;fillColor=#f8cecc;strokeColor=#b85450;" edge="1" parent="1" source="Ky39L7HR0Ecmta5ytGhC-5" target="Ky39L7HR0Ecmta5ytGhC-6">
          <mxGeometry relative="1" as="geometry" />
        </mxCell>
        <mxCell id="Ky39L7HR0Ecmta5ytGhC-5" value="" style="ellipse;whiteSpace=wrap;html=1;aspect=fixed;fillColor=#e1d5e7;strokeColor=#9673a6;" vertex="1" parent="1">
          <mxGeometry x="330" y="330" width="20" height="20" as="geometry" />
        </mxCell>
        <mxCell id="Ky39L7HR0Ecmta5ytGhC-14" style="edgeStyle=orthogonalEdgeStyle;orthogonalLoop=1;jettySize=auto;html=1;exitX=1;exitY=0.5;exitDx=0;exitDy=0;entryX=1;entryY=1;entryDx=0;entryDy=0;curved=1;fillColor=#f8cecc;strokeColor=#b85450;" edge="1" parent="1" source="Ky39L7HR0Ecmta5ytGhC-6" target="Ky39L7HR0Ecmta5ytGhC-7">
          <mxGeometry relative="1" as="geometry" />
        </mxCell>
        <mxCell id="Ky39L7HR0Ecmta5ytGhC-6" value="" style="ellipse;whiteSpace=wrap;html=1;aspect=fixed;fillColor=#e1d5e7;strokeColor=#9673a6;" vertex="1" parent="1">
          <mxGeometry x="330" y="250" width="20" height="20" as="geometry" />
        </mxCell>
        <mxCell id="Ky39L7HR0Ecmta5ytGhC-15" style="edgeStyle=orthogonalEdgeStyle;orthogonalLoop=1;jettySize=auto;html=1;exitX=1;exitY=0.5;exitDx=0;exitDy=0;entryX=0.905;entryY=1.075;entryDx=0;entryDy=0;entryPerimeter=0;curved=1;fillColor=#f8cecc;strokeColor=#b85450;" edge="1" parent="1" source="Ky39L7HR0Ecmta5ytGhC-7" target="Ky39L7HR0Ecmta5ytGhC-1">
          <mxGeometry relative="1" as="geometry" />
        </mxCell>
        <mxCell id="Ky39L7HR0Ecmta5ytGhC-7" value="" style="ellipse;whiteSpace=wrap;html=1;aspect=fixed;fillColor=#e1d5e7;strokeColor=#9673a6;" vertex="1" parent="1">
          <mxGeometry x="330" y="170" width="20" height="20" as="geometry" />
        </mxCell>
        <mxCell id="Ky39L7HR0Ecmta5ytGhC-8" value="BaseEstimator" style="text;html=1;strokeColor=none;fillColor=none;align=center;verticalAlign=middle;whiteSpace=wrap;rounded=0;fontStyle=1;fontColor=#B5739D;" vertex="1" parent="1">
          <mxGeometry x="280" y="360" width="100" height="20" as="geometry" />
        </mxCell>
        <mxCell id="Ky39L7HR0Ecmta5ytGhC-16" value="Const" style="swimlane;fontStyle=0;childLayout=stackLayout;horizontal=1;startSize=30;horizontalStack=0;resizeParent=1;resizeParentMax=0;resizeLast=0;collapsible=1;marginBottom=0;whiteSpace=wrap;html=1;strokeColor=#2b2b2b;swimlaneFillColor=none;rounded=0;" vertex="1" parent="1">
          <mxGeometry x="100" y="400" width="320" height="70" as="geometry">
            <mxRectangle x="400" y="30" width="70" height="30" as="alternateBounds" />
          </mxGeometry>
        </mxCell>
        <mxCell id="Ky39L7HR0Ecmta5ytGhC-18" value="&lt;div style=&quot;background-color: rgb(43, 43, 43); color: rgb(169, 183, 198); font-family: &amp;quot;JetBrains Mono&amp;quot;, monospace; font-size: 9.8pt;&quot;&gt;&lt;span style=&quot;font-size: 9.8pt;&quot;&gt;upperBoundCPUPercentile := &lt;/span&gt;&lt;span style=&quot;font-size: 9.8pt; color: rgb(104, 151, 187);&quot;&gt;0.95&lt;/span&gt;&lt;/div&gt;&lt;div style=&quot;background-color: rgb(43, 43, 43); color: rgb(169, 183, 198); font-family: &amp;quot;JetBrains Mono&amp;quot;, monospace; font-size: 9.8pt;&quot;&gt;upperBoundMemoryPeaksPercentile := &lt;span style=&quot;color:#6897bb;&quot;&gt;0.95&lt;/span&gt;&lt;/div&gt;" style="text;strokeColor=none;fillColor=#2B2B2B;align=left;verticalAlign=middle;spacingLeft=4;spacingRight=4;overflow=hidden;points=[[0,0.5],[1,0.5]];portConstraint=eastwest;rotatable=0;whiteSpace=wrap;html=1;gradientColor=none;" vertex="1" parent="Ky39L7HR0Ecmta5ytGhC-16">
          <mxGeometry y="30" width="320" height="40" as="geometry" />
        </mxCell>
        <mxCell id="Ky39L7HR0Ecmta5ytGhC-25" value="UpperBoundEstimator" style="text;html=1;strokeColor=none;fillColor=none;align=center;verticalAlign=middle;whiteSpace=wrap;rounded=0;fontStyle=1;fontColor=#FF3333;fontSize=15;" vertex="1" parent="1">
          <mxGeometry x="172.5" y="30" width="175" height="20" as="geometry" />
        </mxCell>
        <mxCell id="Ky39L7HR0Ecmta5ytGhC-26" value="" style="rounded=0;whiteSpace=wrap;html=1;" vertex="1" parent="1">
          <mxGeometry x="500" y="60" width="240" height="320" as="geometry" />
        </mxCell>
        <mxCell id="Ky39L7HR0Ecmta5ytGhC-27" value="PercentileEstimator" style="rounded=0;whiteSpace=wrap;html=1;" vertex="1" parent="1">
          <mxGeometry x="520" y="80" width="200" height="40" as="geometry" />
        </mxCell>
        <mxCell id="Ky39L7HR0Ecmta5ytGhC-28" value="MarginEstimator" style="rounded=0;whiteSpace=wrap;html=1;" vertex="1" parent="1">
          <mxGeometry x="520" y="160" width="200" height="40" as="geometry" />
        </mxCell>
        <mxCell id="Ky39L7HR0Ecmta5ytGhC-29" value="ConfidenceMultiplier" style="rounded=0;whiteSpace=wrap;html=1;" vertex="1" parent="1">
          <mxGeometry x="520" y="240" width="200" height="40" as="geometry" />
        </mxCell>
        <mxCell id="Ky39L7HR0Ecmta5ytGhC-30" value="MinResourcesEstimator" style="rounded=0;whiteSpace=wrap;html=1;" vertex="1" parent="1">
          <mxGeometry x="520" y="320" width="200" height="40" as="geometry" />
        </mxCell>
        <mxCell id="Ky39L7HR0Ecmta5ytGhC-31" style="edgeStyle=orthogonalEdgeStyle;orthogonalLoop=1;jettySize=auto;html=1;exitX=1;exitY=0.5;exitDx=0;exitDy=0;entryX=1;entryY=1;entryDx=0;entryDy=0;curved=1;fillColor=#f8cecc;strokeColor=#b85450;" edge="1" parent="1" source="Ky39L7HR0Ecmta5ytGhC-32" target="Ky39L7HR0Ecmta5ytGhC-34">
          <mxGeometry relative="1" as="geometry" />
        </mxCell>
        <mxCell id="Ky39L7HR0Ecmta5ytGhC-32" value="" style="ellipse;whiteSpace=wrap;html=1;aspect=fixed;fillColor=#e1d5e7;strokeColor=#9673a6;" vertex="1" parent="1">
          <mxGeometry x="690" y="330" width="20" height="20" as="geometry" />
        </mxCell>
        <mxCell id="Ky39L7HR0Ecmta5ytGhC-33" style="edgeStyle=orthogonalEdgeStyle;orthogonalLoop=1;jettySize=auto;html=1;exitX=1;exitY=0.5;exitDx=0;exitDy=0;entryX=1;entryY=1;entryDx=0;entryDy=0;curved=1;fillColor=#f8cecc;strokeColor=#b85450;" edge="1" parent="1" source="Ky39L7HR0Ecmta5ytGhC-34" target="Ky39L7HR0Ecmta5ytGhC-36">
          <mxGeometry relative="1" as="geometry" />
        </mxCell>
        <mxCell id="Ky39L7HR0Ecmta5ytGhC-34" value="" style="ellipse;whiteSpace=wrap;html=1;aspect=fixed;fillColor=#e1d5e7;strokeColor=#9673a6;" vertex="1" parent="1">
          <mxGeometry x="690" y="250" width="20" height="20" as="geometry" />
        </mxCell>
        <mxCell id="Ky39L7HR0Ecmta5ytGhC-35" style="edgeStyle=orthogonalEdgeStyle;orthogonalLoop=1;jettySize=auto;html=1;exitX=1;exitY=0.5;exitDx=0;exitDy=0;entryX=0.905;entryY=1.075;entryDx=0;entryDy=0;entryPerimeter=0;curved=1;fillColor=#f8cecc;strokeColor=#b85450;" edge="1" parent="1" source="Ky39L7HR0Ecmta5ytGhC-36" target="Ky39L7HR0Ecmta5ytGhC-27">
          <mxGeometry relative="1" as="geometry" />
        </mxCell>
        <mxCell id="Ky39L7HR0Ecmta5ytGhC-36" value="" style="ellipse;whiteSpace=wrap;html=1;aspect=fixed;fillColor=#e1d5e7;strokeColor=#9673a6;" vertex="1" parent="1">
          <mxGeometry x="690" y="170" width="20" height="20" as="geometry" />
        </mxCell>
        <mxCell id="Ky39L7HR0Ecmta5ytGhC-37" value="BaseEstimator" style="text;html=1;strokeColor=none;fillColor=none;align=center;verticalAlign=middle;whiteSpace=wrap;rounded=0;fontStyle=1;fontColor=#B5739D;" vertex="1" parent="1">
          <mxGeometry x="640" y="360" width="100" height="20" as="geometry" />
        </mxCell>
        <mxCell id="Ky39L7HR0Ecmta5ytGhC-38" value="Const" style="swimlane;fontStyle=0;childLayout=stackLayout;horizontal=1;startSize=30;horizontalStack=0;resizeParent=1;resizeParentMax=0;resizeLast=0;collapsible=1;marginBottom=0;whiteSpace=wrap;html=1;strokeColor=#2b2b2b;swimlaneFillColor=none;rounded=0;" vertex="1" parent="1">
          <mxGeometry x="460" y="400" width="320" height="70" as="geometry">
            <mxRectangle x="400" y="30" width="70" height="30" as="alternateBounds" />
          </mxGeometry>
        </mxCell>
        <mxCell id="Ky39L7HR0Ecmta5ytGhC-39" value="&lt;div style=&quot;background-color: rgb(43, 43, 43); color: rgb(169, 183, 198); font-family: &amp;quot;JetBrains Mono&amp;quot;, monospace; font-size: 9.8pt;&quot;&gt;&lt;span style=&quot;font-size: 9.8pt;&quot;&gt;lowerBoundCPUPercentile := 0.5&lt;/span&gt;&lt;/div&gt;&lt;div style=&quot;background-color: rgb(43, 43, 43); color: rgb(169, 183, 198); font-family: &amp;quot;JetBrains Mono&amp;quot;, monospace; font-size: 9.8pt;&quot;&gt;lowerBoundMemoryPeaksPercentile := &lt;span style=&quot;color:#6897bb;&quot;&gt;0.5&lt;/span&gt;&lt;br&gt;&lt;/div&gt;" style="text;strokeColor=none;fillColor=#2B2B2B;align=left;verticalAlign=middle;spacingLeft=4;spacingRight=4;overflow=hidden;points=[[0,0.5],[1,0.5]];portConstraint=eastwest;rotatable=0;whiteSpace=wrap;html=1;gradientColor=none;" vertex="1" parent="Ky39L7HR0Ecmta5ytGhC-38">
          <mxGeometry y="30" width="320" height="40" as="geometry" />
        </mxCell>
        <mxCell id="Ky39L7HR0Ecmta5ytGhC-40" value="LowerBoundEstimator" style="text;html=1;strokeColor=none;fillColor=none;align=center;verticalAlign=middle;whiteSpace=wrap;rounded=0;fontStyle=1;fontColor=#FF3333;fontSize=15;" vertex="1" parent="1">
          <mxGeometry x="532.5" y="30" width="175" height="20" as="geometry" />
        </mxCell>
        <mxCell id="Ky39L7HR0Ecmta5ytGhC-42" value="" style="rounded=0;whiteSpace=wrap;html=1;" vertex="1" parent="1">
          <mxGeometry x="860" y="60" width="240" height="320" as="geometry" />
        </mxCell>
        <mxCell id="Ky39L7HR0Ecmta5ytGhC-43" value="PercentileEstimator" style="rounded=0;whiteSpace=wrap;html=1;" vertex="1" parent="1">
          <mxGeometry x="880" y="80" width="200" height="40" as="geometry" />
        </mxCell>
        <mxCell id="Ky39L7HR0Ecmta5ytGhC-44" value="MarginEstimator" style="rounded=0;whiteSpace=wrap;html=1;" vertex="1" parent="1">
          <mxGeometry x="880" y="160" width="200" height="40" as="geometry" />
        </mxCell>
        <mxCell id="Ky39L7HR0Ecmta5ytGhC-45" value="ConfidenceMultiplier" style="rounded=0;whiteSpace=wrap;html=1;" vertex="1" parent="1">
          <mxGeometry x="880" y="240" width="200" height="40" as="geometry" />
        </mxCell>
        <mxCell id="Ky39L7HR0Ecmta5ytGhC-49" style="edgeStyle=orthogonalEdgeStyle;orthogonalLoop=1;jettySize=auto;html=1;exitX=1;exitY=0.5;exitDx=0;exitDy=0;entryX=1;entryY=1;entryDx=0;entryDy=0;curved=1;fillColor=#f8cecc;strokeColor=#b85450;" edge="1" parent="1" source="Ky39L7HR0Ecmta5ytGhC-50" target="Ky39L7HR0Ecmta5ytGhC-52">
          <mxGeometry relative="1" as="geometry" />
        </mxCell>
        <mxCell id="Ky39L7HR0Ecmta5ytGhC-50" value="" style="ellipse;whiteSpace=wrap;html=1;aspect=fixed;fillColor=#e1d5e7;strokeColor=#9673a6;" vertex="1" parent="1">
          <mxGeometry x="1050" y="250" width="20" height="20" as="geometry" />
        </mxCell>
        <mxCell id="Ky39L7HR0Ecmta5ytGhC-51" style="edgeStyle=orthogonalEdgeStyle;orthogonalLoop=1;jettySize=auto;html=1;exitX=1;exitY=0.5;exitDx=0;exitDy=0;entryX=0.905;entryY=1.075;entryDx=0;entryDy=0;entryPerimeter=0;curved=1;fillColor=#f8cecc;strokeColor=#b85450;" edge="1" parent="1" source="Ky39L7HR0Ecmta5ytGhC-52" target="Ky39L7HR0Ecmta5ytGhC-43">
          <mxGeometry relative="1" as="geometry" />
        </mxCell>
        <mxCell id="Ky39L7HR0Ecmta5ytGhC-52" value="" style="ellipse;whiteSpace=wrap;html=1;aspect=fixed;fillColor=#e1d5e7;strokeColor=#9673a6;" vertex="1" parent="1">
          <mxGeometry x="1050" y="170" width="20" height="20" as="geometry" />
        </mxCell>
        <mxCell id="Ky39L7HR0Ecmta5ytGhC-53" value="BaseEstimator" style="text;html=1;strokeColor=none;fillColor=none;align=center;verticalAlign=middle;whiteSpace=wrap;rounded=0;fontStyle=1;fontColor=#B5739D;" vertex="1" parent="1">
          <mxGeometry x="990" y="280" width="100" height="20" as="geometry" />
        </mxCell>
        <mxCell id="Ky39L7HR0Ecmta5ytGhC-54" value="Const" style="swimlane;fontStyle=0;childLayout=stackLayout;horizontal=1;startSize=30;horizontalStack=0;resizeParent=1;resizeParentMax=0;resizeLast=0;collapsible=1;marginBottom=0;whiteSpace=wrap;html=1;strokeColor=#2b2b2b;swimlaneFillColor=none;rounded=0;" vertex="1" parent="1">
          <mxGeometry x="810" y="400" width="340" height="70" as="geometry">
            <mxRectangle x="400" y="30" width="70" height="30" as="alternateBounds" />
          </mxGeometry>
        </mxCell>
        <mxCell id="Ky39L7HR0Ecmta5ytGhC-55" value="&lt;div style=&quot;background-color: rgb(43, 43, 43); color: rgb(169, 183, 198); font-family: &amp;quot;JetBrains Mono&amp;quot;, monospace; font-size: 9.8pt;&quot;&gt;targetCPUPercentile := 0.9 (configurable)&lt;/div&gt;&lt;div style=&quot;background-color: rgb(43, 43, 43); color: rgb(169, 183, 198); font-family: &amp;quot;JetBrains Mono&amp;quot;, monospace; font-size: 9.8pt;&quot;&gt;targetMemoryPeaksPercentile := &lt;span style=&quot;color:#6897bb;&quot;&gt;0.9&lt;/span&gt;&lt;br&gt;&lt;/div&gt;" style="text;strokeColor=none;fillColor=#2B2B2B;align=left;verticalAlign=middle;spacingLeft=4;spacingRight=4;overflow=hidden;points=[[0,0.5],[1,0.5]];portConstraint=eastwest;rotatable=0;whiteSpace=wrap;html=1;gradientColor=none;" vertex="1" parent="Ky39L7HR0Ecmta5ytGhC-54">
          <mxGeometry y="30" width="340" height="40" as="geometry" />
        </mxCell>
        <mxCell id="Ky39L7HR0Ecmta5ytGhC-56" value="TargetEstimator" style="text;html=1;strokeColor=none;fillColor=none;align=center;verticalAlign=middle;whiteSpace=wrap;rounded=0;fontStyle=1;fontColor=#FF3333;fontSize=15;" vertex="1" parent="1">
          <mxGeometry x="892.5" y="30" width="175" height="20" as="geometry" />
        </mxCell>
      </root>
    </mxGraphModel>
  </diagram>
</mxfile>
